# xmcd CD database file
# Copyright (C) 1996 Ti Kan
#
# Track frame offsets:
#	150
#	21190
#	36412
#	56157
#	78485
#	94842
#	116877
#	135260
#	150517
#	169527
# Disc length: 2556 seconds
#
# Revision: 1
# Processed by: cddbd v1.4b42PL0 Copyright (c) Steve Scherf et al.
# Submitted via: CDCOPY 4.900
#
DISCID=7b09fa0a
DTITLE=林佳儀 - 沒有你的我
DYEAR=1900
DGENRE=
TTITLE0=愛情娃娃
TTITLE1=不傷感情
TTITLE2=如果星星問
TTITLE3=愛只有你
TTITLE4=愛情娃娃
TTITLE5=從此不問你愛誰
TTITLE6=迷信
TTITLE7=我不是聰明女人
TTITLE8=佔線當中
TTITLE9=我們都認真愛過
EXTD=
EXTT0=
EXTT1=
EXTT2=
EXTT3=
EXTT4=
EXTT5=
EXTT6=
EXTT7=
EXTT8=
EXTT9=
PLAYORDER=
